<svg xmlns="http://www.w3.org/2000/svg" viewBox="0 0 512.002 512.002" class="fill-current">
  <polygon id="XMLID_10_" class="st0" points="190.4,202.9 198,199.5 203,185"/>
  <path id="XMLID_22_" class="st0" d="M214.5,43.2C95.7,43.2-0.6,139.5-0.6,258.3c0,45,13.8,86.7,37.4,121.2l31.3-21.8l19.4-15.6
		c27.6-22.3,47.6-52.6,57.1-86.8L120,258l-31.3-7.3l72.5-35.2l25.3-34.6h2.3c8.2,0,16-3.7,21.2-10.1l43-53.1l7.4,9.3l-8.9-0.5
		l12.9,5.6l9.2,11.5l-2.1,7.1l4.4,7l-5.6-2.8l-12.7,43.9l33.9-24.6l-2.7,16c0,0-47.2,41.2-22.6,77.8s41.2,64.5,44.6,86.4l-21.9-15.3
		c0,0,9.3,27.9,3.3,81.8l-12-14.6c0,0,2.2,26.6,1.4,56.3c85.8-28.2,147.9-109,147.9-204.3C429.6,139.5,333.3,43.2,214.5,43.2z"/>

</svg>
